<?xml version="1.0" encoding="UTF-8" standalone="no"?>
<!DOCTYPE svg PUBLIC "-//W3C//DTD SVG 1.1//EN" "http://www.w3.org/Graphics/SVG/1.1/DTD/svg11.dtd">
<svg width="100%" height="100%" viewBox="0 0 24 24" version="1.1" xmlns="http://www.w3.org/2000/svg" xmlns:xlink="http://www.w3.org/1999/xlink" xml:space="preserve" xmlns:serif="http://www.serif.com/" style="fill-rule:evenodd;clip-rule:evenodd;stroke-linejoin:round;stroke-miterlimit:2;">
    <g>
        <rect x="0" y="0" width="24" height="24" style="fill:none;"/>
        <path d="M17,15L18.55,16.55C17.59,18.24 15.22,19.59 13,19.92L13,11L16,11L16,9L13,9L13,7.82C14.16,7.4 15,6.3 15,5C15,3.35 13.65,2 12,2C10.35,2 9,3.35 9,5C9,6.3 9.84,7.4 11,7.82L11,9L8,9L8,11L11,11L11,19.92C8.78,19.59 6.41,18.24 5.45,16.55L7,15L3,12L3,15C3,18.88 7.92,22 12,22C16.08,22 21,18.88 21,15L21,12L17,15ZM12,4C12.55,4 13,4.45 13,5C13,5.55 12.55,6 12,6C11.45,6 11,5.55 11,5C11,4.45 11.45,4 12,4Z" style="fill:rgb(141,194,255);fill-rule:nonzero;"/>
    </g>
</svg>
